<svg width="32" height="37" viewBox="0 0 32 37" fill="none" xmlns="http://www.w3.org/2000/svg">
<path d="M31.7916 16.0602C31.5383 15.8039 31.2429 15.8039 30.9685 16.0157C30.8525 16.1048 30.747 16.2163 30.6626 16.3389C30.5465 16.4949 30.4515 16.4949 30.3144 16.35C30.1244 16.1494 29.9978 15.9934 30.2827 15.7705C30.441 15.6479 30.557 15.4696 30.6837 15.3135C32.0026 13.5081 31.0846 10.8556 28.9849 10.3875C28.1829 10.1758 27.4549 10.3207 26.769 10.7999C26.4208 10.8668 26.6108 10.577 26.6108 10.4878C26.5897 7.72391 26.5897 4.97114 26.5897 2.21837C26.5897 0.78069 25.7455 -0.0551722 24.3844 0.0228416C23.593 0.0228416 22.8016 0.0228416 22.0103 0.0228416C22.0103 0.45749 22.0103 0.892138 22.0103 1.33793C22.8016 1.33793 23.593 1.33793 24.3844 1.33793C25.1652 1.38251 25.3235 1.54968 25.3235 2.3744C25.3235 5.41694 25.3129 8.45947 25.334 11.5132C25.334 11.9924 25.2496 12.3713 24.8803 12.6611C24.7748 12.7391 24.7009 12.8617 24.6165 12.962C23.9096 13.653 23.2237 14.3774 22.5695 15.1241C21.7254 15.9599 20.9129 16.8292 20.1215 17.7208C19.2563 18.5901 18.4122 19.4817 17.5892 20.3956C16.7451 21.2314 15.9326 22.1007 15.1412 22.9923C14.698 23.4493 14.2865 23.9285 13.8223 24.3408C13.3052 24.8089 13.0098 25.3662 12.9676 26.0794C12.8515 26.6032 12.7355 27.1382 12.6194 27.662C12.4189 28.5759 12.4084 29.5678 11.5853 30.2253C11.3216 30.4371 11.3849 30.816 11.6275 31.0835C11.8491 31.3398 12.2184 31.3621 12.4822 31.128C12.7355 30.9051 12.957 30.6488 13.1892 30.4036C13.7906 30.2699 14.4026 30.1362 15.004 30.0024C15.711 29.8352 16.418 29.6792 17.1249 29.512C17.2726 29.5009 17.3992 29.4229 17.5048 29.3226C18.1906 28.587 18.8765 27.8515 19.5623 27.1159C19.71 27.0602 19.7417 26.893 19.8472 26.7927C20.6175 26.0906 21.3139 25.3104 22.0103 24.5303C22.1052 24.4189 22.2002 24.3074 22.3057 24.2071C23.0443 23.505 23.7302 22.7471 24.416 21.9893C24.7326 21.7441 24.9014 21.3317 25.3129 21.1423C25.3657 21.6104 25.4184 22.0562 24.9753 22.3905C24.817 22.5131 24.6904 22.6803 24.5532 22.8363C24.3844 23.048 24.3422 23.2821 24.4582 23.5384C24.5743 23.8059 24.7853 23.9619 25.0597 23.9285C25.2813 23.8951 25.3446 23.9285 25.3446 24.1848C25.334 27.4614 25.3446 30.7268 25.334 34.0034C25.334 34.5384 25.1546 34.7278 24.6376 34.8393C23.899 34.8393 23.1604 34.8393 22.4218 34.8393C21.6515 34.8393 20.8918 34.8393 20.1215 34.8393C19.2774 34.8393 18.4333 34.8393 17.5892 34.8393C16.7451 34.8393 15.9009 34.8393 15.0568 34.8393C14.2127 34.8393 13.3686 34.8393 12.5244 34.8393C11.6803 34.8393 10.8362 34.8393 9.99205 34.8393C9.12683 34.8393 8.25105 34.8393 7.38582 34.8393C6.59445 34.8393 5.80309 34.8393 5.01172 34.8393C5.01172 35.2739 5.01172 35.7086 5.01172 36.1544C5.80309 36.1544 6.59445 36.1544 7.38582 36.1544C8.25105 36.1544 9.12683 36.1544 9.99205 36.1544C10.8362 36.1544 11.6803 36.1544 12.5244 36.1544C13.3686 36.1544 14.2127 36.1544 15.0568 36.1544C15.9009 36.1544 16.7451 36.1544 17.5892 36.1544C18.4333 36.1544 19.2774 36.1544 20.1215 36.1544C20.8918 36.1544 21.6515 36.1544 22.4218 36.1544C23.1604 36.1544 23.899 36.1544 24.6376 36.1544C25.7772 36.1766 26.6002 35.2962 26.6002 34.0368C26.6002 30.359 26.6002 26.6924 26.6002 23.0146C26.6002 22.8474 26.6213 22.6803 26.6319 22.5131C26.8429 22.2791 27.0223 22.0339 27.2544 21.8221C27.8031 21.3429 28.2885 20.7968 28.7738 20.2507C29.7762 19.2031 30.7786 18.1555 31.781 17.1079C31.8232 17.0633 31.8549 17.0298 31.8865 16.9853C32.0554 16.6286 32.0448 16.3277 31.7916 16.0602ZM17.5892 21.4655C17.5786 21.3206 17.5786 21.1757 17.5786 21.0308C17.5786 21.1869 17.5786 21.3206 17.5892 21.4655ZM15.9748 28.5424C15.6371 28.6316 15.2995 28.7208 14.9618 28.8099C14.9618 28.9994 14.9724 29.2 14.9724 29.3895C14.9724 29.2 14.9618 28.9994 14.9618 28.8099C14.5503 28.8991 14.1388 28.9882 13.7379 29.0774C13.6323 29.0997 13.4424 29.1888 13.4952 28.9214C13.664 28.0966 13.8328 27.2831 14.0227 26.4138C14.3182 26.7035 14.5714 26.9599 14.8247 27.2162C15.2467 27.6063 15.6688 27.9963 16.0909 28.3976C16.0381 28.4421 16.0064 28.4867 15.9748 28.5424ZM26.3575 18.044C25.6611 18.7684 24.9964 19.504 24.3105 20.2284C23.4136 21.1088 22.559 22.0339 21.7148 22.9589C20.9024 23.817 20.0793 24.6863 19.2669 25.5445C18.6654 26.1686 18.064 26.8039 17.4626 27.428C17.3676 27.5171 17.3043 27.7066 17.1144 27.5728C16.4918 26.8484 15.8165 26.1686 15.1412 25.4888C14.8352 25.2324 14.8669 24.9872 15.1834 24.7643C15.2045 24.7532 15.2151 24.7198 15.2256 24.6975C15.1412 24.3408 15.1307 23.9842 15.1307 23.6164C15.1307 23.9731 15.1412 24.3408 15.2256 24.6975C16.0486 23.8282 16.8611 22.97 17.6841 22.1007C17.6525 21.9559 17.6208 21.811 17.6103 21.6772C17.6208 21.8221 17.6419 21.967 17.6841 22.1007C18.5283 21.2092 19.3724 20.3176 20.2165 19.426C21.0817 18.5567 21.9259 17.6651 22.7489 16.7512C23.0654 16.428 23.382 16.1048 23.6985 15.7705C24.1522 15.2912 24.1522 15.2912 24.6271 15.7148C25.2074 16.3389 25.7772 16.963 26.3681 17.5759C26.5369 17.7654 26.5263 17.8657 26.3575 18.044ZM29.3647 17.6985C29.1326 17.966 28.9004 18.2223 28.6578 18.4787C28.0774 19.0805 27.4971 19.6823 26.9168 20.2841C26.8112 20.3844 26.7057 20.4847 26.6002 20.585C26.6108 20.1727 26.463 19.7269 26.8323 19.3925C27.5498 18.6347 28.2779 17.8768 28.9954 17.119C29.2803 16.9407 29.3542 17.2639 29.4808 17.3865C29.6496 17.5314 29.4386 17.6094 29.3647 17.6985ZM29.3753 14.8343C29.2064 15.0126 29.0482 15.1909 28.8899 15.3804C28.5733 15.7036 28.2568 16.0268 27.9403 16.3612C27.4443 16.8738 27.4443 16.885 26.9801 16.3723C26.9379 16.3277 26.8851 16.2831 26.8323 16.2386C26.4103 15.7482 25.9882 15.269 25.4923 14.8455C25.0069 14.4331 25.0069 14.3439 25.4606 13.8759C25.851 13.4746 26.252 13.0734 26.6424 12.6722C26.7163 12.5942 26.7796 12.505 26.8534 12.427C27.1594 12.193 27.3599 11.8364 27.7714 11.7249C28.1829 11.6246 28.5628 11.6246 28.9638 11.7583C30.2088 12.4716 30.3777 13.7756 29.3753 14.8343Z" fill="white"/>
<path d="M2.01535 34.7723C1.78321 34.7723 1.54053 34.7946 1.39281 34.5383C1.28729 34.3488 1.26619 34.1482 1.26619 33.9365C1.26619 23.3489 1.26619 12.7725 1.26619 2.18487C1.26619 1.8171 1.3717 1.53847 1.6777 1.36016C2.49017 1.34901 3.31319 1.33787 4.12566 1.32672C4.12566 0.892075 4.12566 0.457427 4.12566 0.0227791C3.28153 0.0116343 2.43741 -0.032945 1.59329 0.0450688C0.590887 0.234531 0 1.00352 0 2.1403C0 8.13621 0 14.1321 0 20.1392C0 24.7643 0 29.3782 0 34.0033C0 35.0064 0.432614 35.6751 1.26619 35.9983C1.41391 36.054 1.55108 36.132 1.7199 36.132C2.81727 36.1209 3.90408 36.1209 5.00144 36.1209C5.00144 35.6862 5.00144 35.2516 5.00144 34.8058C3.99904 34.7835 3.00719 34.7835 2.01535 34.7723ZM1.59329 0.702613C1.59329 0.724903 1.59329 0.758337 1.59329 0.780627C1.58273 0.758337 1.58273 0.736048 1.59329 0.702613Z" fill="white"/>
<path d="M6.74276 1.32689C6.74276 0.892245 6.74276 0.457597 6.74276 0.0229492C5.86698 0.0229492 5.00176 0.0229492 4.12598 0.0229492C4.12598 0.457597 4.12598 0.892245 4.12598 1.32689C5.00176 1.32689 5.86698 1.32689 6.74276 1.32689Z" fill="white"/>
<path d="M9.34842 1.32689C10.1714 1.32689 10.9839 1.32689 11.8069 1.32689C11.8069 0.892245 11.8069 0.457597 11.8069 0.0229492C10.9839 0.0229492 10.1714 0.0229492 9.34842 0.0229492C8.48319 0.0229492 7.60742 0.0229492 6.74219 0.0229492C6.74219 0.457597 6.74219 0.892245 6.74219 1.32689C7.60742 1.32689 8.48319 1.32689 9.34842 1.32689Z" fill="white"/>
<path d="M16.8722 1.32656C17.7163 1.32656 18.5605 1.32656 19.4046 1.32656C20.2804 1.32656 21.1456 1.32656 22.0214 1.32656C22.0214 0.891916 22.0214 0.457268 22.0214 0.0114746C21.1456 0.0114746 20.2804 0.0114746 19.4046 0.0114746C18.5605 0.0114746 17.7163 0.0114746 16.8722 0.0114746C16.0281 0.0114746 15.184 0.0114746 14.3398 0.0114746C14.3398 0.446123 14.3398 0.880771 14.3398 1.31542C15.184 1.32656 16.0281 1.32656 16.8722 1.32656Z" fill="white"/>
<path d="M14.339 1.32689C14.339 0.892245 14.339 0.457597 14.339 0.0229492C13.4949 0.0229492 12.6508 0.0229492 11.8066 0.0229492C11.8066 0.457597 11.8066 0.892245 11.8066 1.32689C12.6508 1.32689 13.4949 1.32689 14.339 1.32689Z" fill="white"/>
<path d="M5.0756 13.3742C5.99359 13.3854 6.92213 13.3742 7.84011 13.3631C8.78975 13.3631 9.73939 13.3631 10.689 13.3631C11.5543 13.3631 12.43 13.3631 13.2953 13.3631C14.1394 13.3631 14.9835 13.3631 15.8276 13.3631C16.619 13.3631 17.4104 13.3631 18.2017 13.3631C18.2017 12.9285 18.2017 12.4938 18.2017 12.048C17.4104 12.048 16.619 12.048 15.8276 12.048C14.9835 12.048 14.1394 12.048 13.2953 12.048C12.43 12.048 11.5543 12.048 10.689 12.048C9.73939 12.048 8.78975 12.048 7.84011 12.048C6.92213 12.048 5.99359 12.0369 5.0756 12.0369C4.6852 12.0369 4.44251 12.3043 4.43196 12.6833C4.42141 13.0845 4.67464 13.3742 5.0756 13.3742Z" fill="white"/>
<path d="M5.0756 10.0309C5.91973 10.0421 6.76385 10.0309 7.60798 10.0198C8.50486 10.0198 9.40174 10.0198 10.2986 10.0198C11.1427 10.0198 11.9869 10.0198 12.831 10.0198C13.654 10.0198 14.4665 10.0198 15.2895 10.0198C16.102 10.0198 16.925 10.0198 17.7375 10.0198C18.4233 10.0198 19.1092 10.0198 19.795 10.0198C20.3543 10.0198 20.924 10.0421 21.4833 10.0309C21.8737 10.0198 22.148 9.73002 22.148 9.36224C22.148 8.99446 21.8737 8.7047 21.4833 8.69355C20.924 8.68241 20.3543 8.70469 19.795 8.70469C19.1092 8.70469 18.4233 8.70469 17.7375 8.70469C16.925 8.70469 16.102 8.70469 15.2895 8.70469C14.4665 8.70469 13.654 8.70469 12.831 8.70469C11.9869 8.70469 11.1427 8.70469 10.2986 8.70469C9.40174 8.70469 8.50486 8.70469 7.60798 8.70469C6.76385 8.70469 5.91973 8.68241 5.0756 8.69355C4.6852 8.69355 4.44251 8.96103 4.43196 9.33995C4.42141 9.74116 4.67464 10.0309 5.0756 10.0309Z" fill="white"/>
<path d="M5.09592 6.68742C5.72901 6.69857 6.35156 6.68742 6.98465 6.67628C7.82877 6.67628 8.6729 6.67628 9.51702 6.67628C10.3611 6.67628 11.2053 6.67628 12.0494 6.67628C12.8935 6.67628 13.7376 6.67628 14.5818 6.67628C15.3942 6.67628 16.2173 6.67628 17.0297 6.67628C17.8211 6.67628 18.6125 6.67628 19.4038 6.67628C20.1002 6.67628 20.7966 6.69857 21.4825 6.68742C21.8729 6.68742 22.1472 6.38651 22.1472 6.01873C22.1472 5.65095 21.8729 5.36119 21.4825 5.35004C20.7861 5.3389 20.0897 5.36119 19.4038 5.36119C18.6125 5.36119 17.8211 5.36119 17.0297 5.36119C16.2173 5.36119 15.3942 5.36119 14.5818 5.36119C13.7376 5.36119 12.8935 5.36119 12.0494 5.36119C11.2053 5.36119 10.3611 5.36119 9.51702 5.36119C8.6729 5.36119 7.82877 5.36119 6.98465 5.36119C6.35156 5.36119 5.72901 5.3389 5.09592 5.35004C4.69496 5.35004 4.44172 5.62867 4.44172 6.01873C4.43117 6.4088 4.68441 6.68742 5.09592 6.68742Z" fill="white"/>
<path d="M6.659 16.7068C7.52422 16.7068 8.4 16.7068 9.26523 16.7068C10.1621 16.7068 11.059 16.7179 11.9559 16.7179C12.3674 16.7179 12.6628 16.417 12.6523 16.027C12.6417 15.6592 12.3568 15.3806 11.9559 15.3806C11.059 15.3806 10.1621 15.3917 9.26523 15.3917C8.4 15.3917 7.52422 15.3917 6.659 15.3917C6.13142 15.3917 5.61439 15.3694 5.08681 15.3806C4.68585 15.3917 4.43262 15.6592 4.43262 16.0493C4.43262 16.4393 4.68585 16.7068 5.08681 16.7179C5.61439 16.7291 6.14197 16.7179 6.659 16.7068Z" fill="white"/>
<path d="M20.1112 13.3633C20.5649 13.3633 21.0292 13.3856 21.4829 13.3744C21.8733 13.3633 22.1476 13.0735 22.1476 12.7057C22.1476 12.338 21.8733 12.0482 21.4829 12.0371C21.0292 12.0259 20.5649 12.0482 20.1112 12.0482C19.4781 12.0482 18.845 12.0482 18.2119 12.0482C18.2119 12.4828 18.2119 12.9175 18.2119 13.3633C18.845 13.3633 19.4781 13.3633 20.1112 13.3633Z" fill="white"/>
</svg>
