<svg width="23" height="21" viewBox="0 0 23 21" fill="none" xmlns="http://www.w3.org/2000/svg">
<path d="M7.1 0.5H15.9C19.2638 0.5 22 3.23624 22 6.6V14.3C22 17.6638 19.2638 20.4 15.9 20.4H1.6C1.44087 20.4 1.28826 20.3368 1.17574 20.2243C1.06321 20.1117 1 19.9591 1 19.8V6.6C1 3.23624 3.73624 0.5 7.1 0.5Z" stroke="white"/>
<path d="M8.7501 12.0998C9.66137 12.0998 10.4001 11.3611 10.4001 10.4498C10.4001 9.53853 9.66137 8.7998 8.7501 8.7998C7.83883 8.7998 7.1001 9.53853 7.1001 10.4498C7.1001 11.3611 7.83883 12.0998 8.7501 12.0998Z" fill="#EDF4FF"/>
<path d="M14.2501 12.0998C15.1614 12.0998 15.9001 11.3611 15.9001 10.4498C15.9001 9.53853 15.1614 8.7998 14.2501 8.7998C13.3388 8.7998 12.6001 9.53853 12.6001 10.4498C12.6001 11.3611 13.3388 12.0998 14.2501 12.0998Z" fill="#EDF4FF"/>
</svg>
