<svg width="21" height="21" viewBox="0 0 21 21" fill="none" xmlns="http://www.w3.org/2000/svg">
<path d="M16.7002 13.4497C16.0002 12.9497 15.4002 12.6497 14.9002 12.5497C14.7002 12.4497 14.5002 12.4497 14.4002 12.4497C13.4002 13.5497 12.6002 14.1497 11.9002 14.4497C11.2002 14.7497 10.7002 14.7497 10.4002 14.7497C10.2002 14.7497 9.7002 14.7497 8.9002 14.4497C8.2002 14.1497 7.4002 13.5497 6.4002 12.4497C6.3002 12.4497 6.1002 12.5497 5.9002 12.5497C5.4002 12.6497 4.8002 12.9497 4.1002 13.4497C2.8002 14.4497 1.4002 16.2497 1.2002 19.9497C1.2002 20.1497 1.4002 20.4497 1.7002 20.4497H10.5002H19.3002C19.6002 20.4497 19.8002 20.2497 19.8002 19.9497C19.4002 16.2497 18.0002 14.4497 16.7002 13.4497Z" stroke="white"/>
<path d="M10.4 11.7498C12.4 11.7498 14.5 9.2498 15 6.1498C15.5 3.0498 13.4 0.549805 10.3 0.549805C7.2 0.549805 5.2 3.1498 5.7 6.2498C6.2 9.3498 8.4 11.7498 10.4 11.7498Z" stroke="white"/>
</svg>
