<svg width="37" height="37" viewBox="0 0 37 37" fill="none" xmlns="http://www.w3.org/2000/svg">
<circle cx="18.4787" cy="18.4782" r="17.2388" fill="#009AF1" stroke="white" stroke-width="1.22582"/>
<path d="M27.2544 17.5035V23.3538C27.2544 26.42 27.0327 27.254 23.3543 27.254H14.2167C11.097 27.254 9.70361 27.033 9.70361 24.8789V13.6033C9.70361 9.87147 10.4841 9.70312 13.6038 9.70312H19.4541" stroke="white" stroke-width="1.83873" stroke-linecap="round"/>
<path d="M24.3499 10.2179C24.6796 9.88831 25.1266 9.70312 25.5928 9.70312C26.059 9.70313 26.506 9.88831 26.8357 10.2179C27.1653 10.5476 27.3505 10.9946 27.3505 11.4608C27.3505 11.927 27.1653 12.374 26.8357 12.7037L18.9642 20.5751L15.6499 21.4037L16.4785 18.0894L24.3499 10.2179Z" stroke="white" stroke-width="1.83873" stroke-linecap="round" stroke-linejoin="round"/>
<path d="M22.3789 12.6279L24.329 14.578" stroke="white" stroke-width="1.83873" stroke-linecap="round" stroke-linejoin="round"/>
</svg>
